{"title":"In Cold Blood - A Sangue Freddo (1967) [XviD - Italian English A","uid":11620764,"size":2452177786,"categoryP":"video","categoryS":"movies","magnet":"?xt=urn:btih:29f3e3d46d20d0b9d0b2f7488b6946675ceb975c&amp;dn=In+Cold+Blood+-+A+Sangue+Freddo+%281967%29+%5BXviD+-+Italian+English+A&amp;tr=udp%3A%2F%2Ftracker.openbittorrent.com%3A80&amp;tr=udp%3A%2F%2Fopen.demonii.com%3A1337&amp;tr=udp%3A%2F%2Ftracker.coppersurfer.tk%3A6969&amp;tr=udp%3A%2F%2Fexodus.desync.com%3A6969","seeders":2,"leechers":2,"uploader":"robbyrs4","files":7,"time":1417543925,"description":"In Cold Blood - A Sangue Freddo (1967) [XviD - Italian English Ac3 - Sub ita Eng] MIRCrew\n\nA Sangue Freddo - In Cold Blood (1967) [XviD - Italian English Ac3 - Sub ita Eng] MIRCrew\n\n\n[center][color=green][b][img]http://s19.postimg.org/mqmhlwtlf/Mircrew_original_red_skull.png[/img]\n\n[u]NO FOUND ONLY ORIGINAL RELEASE[/u]\n\n\nA Sangue Freddo - In Cold Blood (1967)\n\n\n[img]http://s19.postimg.org/k6wqmjxar/image.jpg[/img]\n\n\n[URL=http://www.imdb.com/title/tt0061809/][IMG]http://www.userlogos.org/files/logos/Sucka/imdb_new.png[/IMG][/URL]  \n\n[img]http://imageshack.us/a/img534/6946/zcu.gif[/img]\n\n[u]Premi[/u]\n\n    National Board of Review Awards 1967: miglior regista\n    David di Donatello 1968: miglior regista straniero\n\n\nTitolo originale \tIn Cold Blood\nPaese di produzione \tStati Uniti\nAnno \t1967\nDurata \t134 min\nColore \tB/N\nRapporto \t2,35:1\nGenere \tpoliziesco, drammatico\nRegia \tRichard Brooks\nSoggetto \tromanzo di Truman Capote\nSceneggiatura \tRichard Brooks\nFotografia \tConrad L. Hall\nMontaggio \tPeter Zinner\nMusiche \tQuincy Jones\n\n[img]http://imageshack.us/a/img4/8946/u96.gif[/img]\n\n\n    Robert Blake: Perry Edward Smith\n    Scott Wilson: Richard Eugene 'Dick' Hickock\n    John Forsythe: Alvin Dewey\n    Paul Stewart: Jensen\n    Gerald S. O'Loughlin: Harold Nye\n    Jeff Corey: Mister Hickock\n    John Gallaudet: Roy Church\n    James Flavin: Clarence Duntz\n    John Collins: Giudice Roland Tate\n    Charles McGraw: Tex Smith\n    Will Geer: Procuratore\n    James Lantz: Ufficiale Rohleder\n    John McLiam: Herbert Clutter\n    Brenda Currin: Nancy Clutter\n    Ruth Storey: Bonnie Clutter\n\n\n[img]http://imageshack.us/a/img844/6546/cupz.gif[/img]. \n\nDue malviventi usciti di prigione tentano una rapina e finiscono per uccidere inutilmente una famiglia intera. La polizia li bracca a lungo e.....\n\n[img]http://imageshack.us/a/img202/6180/4e6.gif[/img]\n\nIn meeting in Kansas, ex-cons Perry Smith and Dick Hickock are breaking several conditions of their respective paroles. The meeting, initiated by Dick, is to plan and eventually carry out a robbery based on information he had received from a fellow inmate about $10,000 cash being locked in a hidden safe in the home of the farming Clutter family of Holcomb....\n\n\n &lt;a href=&quot;\nhttp://s19.postimg.org/fz6jrjl8z/vlcsnap_2014_12_02_16h59m27s176.png[/img]&quot; rel=&quot;nofollow&quot; target=&quot;_NEW&quot;&gt;\nhttp://s19.postimg.org/fz6jrjl8z/vlcsnap_2014_12_02_16h59m27s176.png[/img]&lt;/a&gt;\n &lt;a href=&quot;\nhttp://s19.postimg.org/wcqjap1eb/vlcsnap_2014_12_02_16h59m50s148.png[/img]&quot; rel=&quot;nofollow&quot; target=&quot;_NEW&quot;&gt;\nhttp://s19.postimg.org/wcqjap1eb/vlcsnap_2014_12_02_16h59m50s148.png[/img]&lt;/a&gt;\n &lt;a href=&quot;\nhttp://s19.postimg.org/wo7znghub/vlcsnap_2014_12_02_16h59m57s222.png[/img]&quot; rel=&quot;nofollow&quot; target=&quot;_NEW&quot;&gt;\nhttp://s19.postimg.org/wo7znghub/vlcsnap_2014_12_02_16h59m57s222.png[/img]&lt;/a&gt;\n\n\n[img]http://imageshack.us/a/img571/2166/an4p.gif[/img]\n\n\n[spoiler]\nGeneral\nComplete name                            : A Sangue Freddo - In Cold Blood (1967).ita.eng.sub.ita.eng.MIRCrewA Sangue Freddo - In Cold Blood (1967).ita.eng.sub.ita.eng.MIRCrew.avi\nFormat                                   : AVI\nFormat/Info                              : Audio Video Interleave\nFormat profile                           : OpenDML\nFile size                                : 2.27 GiB\nDuration                                 : 2h 14mn\nOverall bit rate                         : 2 412 Kbps\nMovie name                               : A Sangue Freddo (Brooks, 1967)\nWriting application                      : VirtualDubMod 1.5.4.1 (build 2178/release)\nWriting library                          : VirtualDubMod build 2178/release\n\nVideo\nID                                       : 0\nFormat                                   : MPEG-4 Visual\nFormat profile                           : Simple@L3\nFormat settings, BVOP                    : No\nFormat settings, QPel                    : No\nFormat settings, GMC                     : No warppoints\nFormat settings, Matrix                  : Default (H.263)\nCodec ID                                 : XVID\nCodec ID/Hint                            : XviD\nDuration                                 : 2h 14mn\nBit rate                                 : 1 498 Kbps\nWidth                                    : 720 pixels\nHeight                                   : 304 pixels\nDisplay aspect ratio                     : 2.35:1\nFrame rate                               : 23.976 fps\nColor space                              : YUV\nChroma subsampling                       : 4:2:0\nBit depth                                : 8 bits\nScan type                                : Progressive\nCompression mode                         : Lossy\nBits/(Pixel*Frame)                       : 0.285\nStream size                              : 1.41 GiB (62%)\nTitle                                    : A Sangue Freddo (Brooks, 1967)\nWriting library                          : XviD 65\n\nAudio #1\nID                                       : 1\nFormat                                   : AC-3\nFormat/Info                              : Audio Coding 3\nMode extension                           : CM (complete main)\nCodec ID                                 : 2000\nDuration                                 : 2h 14mn\nBit rate mode                            : Constant\nBit rate                                 : 448 Kbps\nChannel(s)                               : 6 channels\nChannel positions                        : Front: L C R, Side: L R, LFE\nSampling rate                            : 48.0 KHz\nBit depth                                : 16 bits\nCompression mode                         : Lossy\nStream size                              : 431 MiB (19%)\nAlignment                                : Split accross interleaves\nInterleave, duration                     : 42 ms (1.00 video frame)\nInterleave, preload duration             : 500 ms\n\nAudio #2\nID                                       : 2\nFormat                                   : AC-3\nFormat/Info                              : Audio Coding 3\nMode extension                           : CM (complete main)\nCodec ID                                 : 2000\nDuration                                 : 2h 14mn\nBit rate mode                            : Constant\nBit rate                                 : 448 Kbps\nChannel(s)                               : 6 channels\nChannel positions                        : Front: L C R, Side: L R, LFE\nSampling rate                            : 48.0 KHz\nBit depth                                : 16 bits\nCompression mode                         : Lossy\nStream size                              : 431 MiB (19%)\nAlignment                                : Split accross interleaves\nInterleave, duration                     : 42 ms (1.00 video frame)\nInterleave, preload duration             : 500 ms\n\n\n\n\n[/spoiler]\n\n[/color][/b][/center]","torrent":{"xt":"urn:btih:29f3e3d46d20d0b9d0b2f7488b6946675ceb975c","amp;dn":"In+Cold+Blood+-+A+Sangue+Freddo+%281967%29+%5BXviD+-+Italian+English+A","amp;tr":["udp%3A%2F%2Ftracker.openbittorrent.com%3A80","udp%3A%2F%2Fopen.demonii.com%3A1337","udp%3A%2F%2Ftracker.coppersurfer.tk%3A6969","udp%3A%2F%2Fexodus.desync.com%3A6969"],"infoHash":"29f3e3d46d20d0b9d0b2f7488b6946675ceb975c","infoHashBuffer":{"type":"Buffer","data":[41,243,227,212,109,32,208,185,208,178,247,72,139,105,70,103,92,235,151,92]},"announce":[],"urlList":[]}}